KRSPY-NB-MinG.ufo
<glyph name="zero" format="2">
  <advance width="750.216405594784"/>
  <unicode hex="0030"/>
  <outline>
    <contour>
      <point x="46.81651922192463" y="0.0" type="line" identifier="4KX3b3mGg4"/>
      <point x="703.3998863728593" y="0.0" type="line" identifier="V2j8wYP0nr"/>
      <point x="703.3998863728593" y="1600.0" type="line" identifier="NaxGoenf3y"/>
      <point x="46.81651922192463" y="1600.0" type="line" identifier="rx6fJSLiri"/>
    </contour>
    <contour>
      <point x="298.5318832345859" y="270.13822831840855" type="line"/>
      <point x="298.5318832345859" y="1329.8617716815916" type="line"/>
      <point x="451.68452236019806" y="1329.8617716815916" type="line"/>
      <point x="451.68452236019806" y="270.13822831840855" type="line"/>
    </contour>
  </outline>
</glyph>
<glyph name="one" format="2">
  <advance width="492.4122500879257"/>
  <unicode hex="0031"/>
  <outline>
    <contour>
      <point x="26.156183210237266" y="0.0" type="line"/>
      <point x="468.8494710927143" y="0.0" type="line" identifier="CURJAw79Zl"/>
      <point x="468.8494710927143" y="270.13822831840855" type="line" identifier="0DUCJo8xIi"/>
      <point x="373.3658523388253" y="270.13822831840855" type="line" identifier="5nmxQXofSG"/>
      <point x="373.3658523388253" y="1600.0" type="line" identifier="4rjIeWbSbx"/>
      <point x="22.872223574926277" y="1600.0" type="line"/>
      <point x="22.872223574926277" y="1329.8617716815916" type="line"/>
      <point x="121.63980196412629" y="1329.8617716815916" type="line"/>
      <point x="121.63980196412629" y="270.13822831840855" type="line"/>
      <point x="26.156183210237266" y="270.13822831840855" type="line"/>
    </contour>
  </outline>
</glyph>
<glyph name="two" format="2">
  <advance width="732.3057922787652"/>
  <unicode hex="0032"/>
  <outline>
    <contour>
      <point x="39.35370505640777" y="0.0" type="line"/>
      <point x="693.5229644058471" y="0.0" type="line" identifier="pzdvPTirLJ"/>
      <point x="693.5229644058471" y="403.4286358430502" type="line" identifier="91SxUS0iwG"/>
      <point x="442.7884641398155" y="403.4286358430502" type="line" identifier="fP7EN0pUcl"/>
      <point x="442.7884641398155" y="269.7901324748172" type="line" identifier="eb458Bdvng"/>
      <point x="294.09912615318024" y="269.7901324748172" type="line"/>
      <point x="294.09912615318024" y="401.96888780672566" type="line" identifier="9fjc25rkUx"/>
      <point x="688.6681275870466" y="1087.3959905851796" type="line" identifier="yyb1NCCI5w"/>
      <point x="688.6681275870466" y="1600.0" type="line" identifier="5FogYRSgkk"/>
      <point x="42.63766469171875" y="1600.0" type="line" identifier="svlFvrau4c"/>
      <point x="42.63766469171875" y="1123.657215774333" type="line" identifier="LQ9fBsTy9K"/>
      <point x="293.5023131239348" y="1123.657215774333" type="line" identifier="jS6EyIAKtm"/>
      <point x="293.5023131239348" y="1330.2272723173623" type="line"/>
      <point x="434.0378396414433" y="1330.2272723173623" type="line" identifier="N6CMAjhNlU"/>
      <point x="434.0378396414433" y="1091.4144595045495" type="line" identifier="yK1d5IcluK"/>
      <point x="39.35370505640777" y="406.75365455545636" type="line" identifier="teVKnpBcVb"/>
    </contour>
  </outline>
</glyph>
<glyph name="three" format="2">
  <advance width="741.7385764142521"/>
  <unicode hex="0033"/>
  <outline>
    <contour>
      <point x="44.56258961664367" y="0.0" type="line" identifier="O9abUc1nmN"/>
      <point x="698.1609717825934" y="0.0" type="line" identifier="kMJYMTfXCq"/>
      <point x="698.1609717825934" y="844.3994535075617" type="line" identifier="su2XmdS8e8"/>
      <point x="616.5161828495161" y="844.3994535075617" type="line" identifier="JQaOzDQqlF"/>
      <point x="616.5161828495161" y="847.0986932878825" type="line"/>
      <point x="675.3950707464221" y="935.7396766135505" type="line" identifier="S91TzLL02W"/>
      <point x="675.3950707464221" y="1600.0" type="line" identifier="xg8x2Ki40p"/>
      <point x="46.954765576387196" y="1600.0" type="line" identifier="pE1XSRiy68"/>
      <point x="46.954765576387196" y="1160.0086031977921" type="line" identifier="5lNstGRcSF"/>
      <point x="297.81508535562585" y="1160.0086031977921" type="line" identifier="AcE5xKDZfE"/>
      <point x="297.81508535562585" y="1324.5010956902847" type="line" identifier="7ogBYufWpl"/>
      <point x="422.6258150041933" y="1324.5010956902847" type="line" identifier="RHLvSX2Jv6"/>
      <point x="422.6258150041933" y="936.2905427950473" type="line" identifier="YUjTrmoWd9"/>
      <point x="368.51046542037534" y="849.1642543444345" type="line"/>
      <point x="368.51046542037534" y="845.0608356103852" type="line" identifier="iic1IBkDqp"/>
      <point x="100.48015583150718" y="845.0608356103852" type="line" identifier="lRLJEhXMlO"/>
      <point x="100.48015583150718" y="680.1780879979078" type="line" identifier="8aKgEELrVU"/>
      <point x="446.4305927549171" y="680.1780879979078" type="line" identifier="Dm8zjmbhNr"/>
      <point x="446.4305927549171" y="269.7901324748172" type="line" identifier="xv9CFHiFgB"/>
      <point x="295.28207486766036" y="269.7901324748172" type="line" identifier="YajKQV3MHP"/>
      <point x="295.28207486766036" y="334.4382761139518" type="line" identifier="36SchVkwze"/>
      <point x="44.56258961664367" y="334.4382761139518" type="line" identifier="tVui9PiOjA"/>
    </contour>
  </outline>
</glyph>
<glyph name="four" format="2">
  <advance width="1519.9143708272838"/>
  <unicode hex="0034"/>
  <outline>
    <contour>
      <point x="794.1438836233631" y="0.0" type="line"/>
      <point x="1418.4111037964892" y="0.0" type="line"/>
      <point x="1418.4111037964892" y="590.6330955580205" type="line"/>
      <point x="1428.2232823414004" y="590.6330955580205" type="line"/>
      <point x="1428.2232823414004" y="983.9995851707563" type="line"/>
      <point x="1418.4111037964892" y="983.9995851707563" type="line"/>
      <point x="1418.4111037964892" y="1600.0" type="line"/>
      <point x="794.1438836233631" y="1600.0" type="line"/>
      <point x="794.1438836233631" y="983.9995851707563" type="line"/>
      <point x="692.1430118807497" y="983.9995851707563" type="line"/>
      <point x="692.1430118807497" y="1065.0349839328817" type="line"/>
      <point x="738.1772573374174" y="1680.0" type="line"/>
      <point x="114.18519119720321" y="1680.0" type="line"/>
      <point x="67.87979571162755" y="1064.0389879368856" type="line"/>
      <point x="67.87979571162755" y="590.6330955580205" type="line"/>
      <point x="794.1438836233631" y="590.6330955580205" type="line"/>
    </contour>
  </outline>
</glyph>
<glyph name="five" format="2">
  <advance width="1536.9207405603802"/>
  <unicode hex="0035"/>
  <outline>
    <contour>
      <point x="87.82862842822803" y="0.0" type="line" identifier="09VlJ0BjUX"/>
      <point x="1450.2445428411395" y="0.0" type="line" identifier="EagWihqFM8"/>
      <point x="1450.2445428411395" y="951.958454951448" type="line" identifier="KfNuQA7eZe"/>
      <point x="710.9422956490024" y="1001.3663914164414" type="line" identifier="At364YZFEy"/>
      <point x="710.9422956490024" y="1206.6062879696512" type="line" identifier="BcuLfvaQKC"/>
      <point x="1450.2445428411395" y="1206.6062879696512" type="line" identifier="3ZUkG35meB"/>
      <point x="1450.2445428411395" y="1600.0" type="line" identifier="SaF9ojRFrW"/>
      <point x="86.67619771924076" y="1600.0" type="line" identifier="F4sQEYelA8"/>
      <point x="86.67619771924076" y="674.7644170697224" type="line" identifier="3sQ8t8BZ6b"/>
      <point x="825.9784449113778" y="624.6396426456488" type="line" identifier="yiV6OCBLHg"/>
      <point x="825.9784449113778" y="393.3937120303487" type="line" identifier="9kdl9SYsn8"/>
      <point x="712.0867854841829" y="393.3937120303487" type="line" identifier="yZDWuX8LLe"/>
      <point x="712.0867854841829" y="506.1214096979863" type="line" identifier="jYb9001DTm"/>
      <point x="87.82862842822803" y="506.1214096979863" type="line" identifier="ho4DrS0rdW"/>
    </contour>
  </outline>
</glyph>
<glyph name="six" format="2">
  <advance width="735.5447068690312"/>
  <unicode hex="0036"/>
  <outline>
    <contour>
      <point x="39.76781285790295" y="0.0" type="line" identifier="uiw6aBUf4P"/>
      <point x="693.9370722073423" y="0.0" type="line" identifier="jtYkxiUX6G"/>
      <point x="693.9370722073423" y="876.597714831949" type="line" identifier="2G5L37c87I"/>
      <point x="291.3530287043801" y="876.597714831949" type="line"/>
      <point x="291.3530287043801" y="1204.4245236227218" type="line"/>
      <point x="317.99065732399066" y="1330.0358196033872" type="line"/>
      <point x="442.7884641398155" y="1330.0358196033872" type="line"/>
      <point x="442.7884641398155" y="1153.7413990567143" type="line"/>
      <point x="692.9370722073423" y="1153.7413990567143" type="line" identifier="Wuidbv6mUe"/>
      <point x="692.9370722073423" y="1600.0" type="line" identifier="oGvEEuxnYv"/>
      <point x="87.14958201444688" y="1600.0" type="line" identifier="xR3pEHbMJx"/>
      <point x="39.76781285790295" y="1208.348528708889" type="line" identifier="KnMArb0tv8"/>
    </contour>
    <contour>
      <point x="442.20669317966616" y="654.6011416822228" type="line"/>
      <point x="442.20669317966616" y="269.61608455302155" type="line"/>
      <point x="291.3530287043801" y="269.61608455302155" type="line"/>
      <point x="291.3530287043801" y="654.6011416822228" type="line"/>
    </contour>
  </outline>
</glyph>
<glyph name="seven" format="2">
  <advance width="736.5146768390011"/>
  <unicode hex="0037"/>
  <outline>
    <contour>
      <point x="295.3367241114989" y="0.0" type="line"/>
      <point x="548.8029380732085" y="0.0" type="line" identifier="PiPrv7Kcoy"/>
      <point x="692.5229644058471" y="1279.6686235785332" type="line" identifier="PkvwNC9Tx1"/>
      <point x="692.5229644058471" y="1600.0" type="line" identifier="tgqM27bPOm"/>
      <point x="39.35370505640777" y="1600.0" type="line" identifier="36ml4xRICt"/>
      <point x="39.35370505640777" y="1092.1284347410474" type="line" identifier="aaDZsh5Mah"/>
      <point x="290.20333847360877" y="1092.1284347410474" type="line"/>
      <point x="290.20333847360877" y="1329.8617716815916" type="line"/>
      <point x="439.20628736844947" y="1329.8617716815916" type="line"/>
      <point x="439.20628736844947" y="1280.0328436544655" type="line"/>
    </contour>
  </outline>
</glyph>
<glyph name="eight" format="2">
  <advance width="1572.6114001889778"/>
  <unicode hex="0038"/>
  <outline>
    <contour>
      <point x="798.3114505897288" y="645.9589709829951" type="line"/>
      <point x="854.255448641835" y="582.4671969266564" type="line"/>
      <point x="854.255448641835" y="393.30523917310705" type="line"/>
      <point x="718.3559515471427" y="393.30523917310705" type="line"/>
      <point x="718.3559515471427" y="582.4059464870276" type="line"/>
      <point x="774.3073564054545" y="645.9555681807934" type="line"/>
    </contour>
    <contour>
      <point x="1352.4576388200012" y="799.0" type="line"/>
      <point x="1352.4576388200012" y="801.0" type="line"/>
      <point x="1475.3731198666133" y="987.0457113770427" type="line"/>
      <point x="1475.3731198666133" y="1600.0" type="line"/>
      <point x="97.2394025657289" y="1600.0" type="line"/>
      <point x="97.2394025657289" y="987.0457113770427" type="line"/>
      <point x="221.8495372249126" y="801.0" type="line"/>
      <point x="221.8495372249126" y="799.0" type="line"/>
      <point x="94.08985361738114" y="609.9572826079332" type="line"/>
      <point x="94.08985361738114" y="0.0" type="line"/>
      <point x="1478.5226688149612" y="0.0" type="line"/>
      <point x="1478.5226688149612" y="609.9572826079332" type="line"/>
    </contour>
    <contour>
      <point x="774.3073564054545" y="954.1090850610369" type="line"/>
      <point x="722.0761923084244" y="1014.6378811243676" type="line"/>
      <point x="722.0727895062229" y="1206.7628168709248" type="line"/>
      <point x="850.5386106827548" y="1206.7628168709248" type="line"/>
      <point x="850.5352078805532" y="1014.6378811243676" type="line"/>
      <point x="798.3080477875272" y="954.1124878632386" type="line"/>
    </contour>
  </outline>
</glyph>
<glyph name="nine" format="2">
  <advance width="1528.259958657356"/>
  <unicode hex="0039"/>
  <outline>
    <contour>
      <point x="1449.2725708691676" y="1600.0" type="line" identifier="uiw6aBUf4P"/>
      <point x="78.42009877745613" y="1600.0" type="line" identifier="jtYkxiUX6G"/>
      <point x="78.42009877745613" y="671.3796048300553" type="line" identifier="2G5L37c87I"/>
      <point x="825.0024689354018" y="671.3796048300553" type="line"/>
      <point x="825.0024689354018" y="393.3596840083327" type="line"/>
      <point x="703.6771335900464" y="393.3596840083327" type="line"/>
      <point x="703.6771335900464" y="536.9913036159284" type="line"/>
      <point x="79.98738778818858" y="536.9913036159284" type="line" identifier="Wuidbv6mUe"/>
      <point x="79.98738778818858" y="0.0" type="line" identifier="oGvEEuxnYv"/>
      <point x="1449.2725708691676" y="0.0" type="line" identifier="xR3pEHbMJx"/>
    </contour>
    <contour>
      <point x="703.2534857179501" y="1013.2106550995439" type="line"/>
      <point x="703.2534857179501" y="1206.5722599476353" type="line"/>
      <point x="825.0024689354018" y="1206.5722599476353" type="line"/>
      <point x="825.0024689354018" y="1013.2106550995439" type="line"/>
    </contour>
  </outline>
</glyph>
<glyph name="A" format="2">
  <advance width="1564.1537002467933"/>
  <unicode hex="0041"/>
  <outline>
    <contour>
      <point x="94.08584961337714" y="0.0" type="line" smooth="yes" identifier="jFq8ta4UUc"/>
      <point x="718.3519475431387" y="0.0" type="line" smooth="yes" identifier="dQz4RxYhG4"/>
      <point x="718.3519475431387" y="506.14803692581467" type="line" smooth="yes" identifier="viYRWe5UN7"/>
      <point x="840.1009307605905" y="506.14803692581467" type="line" smooth="yes" identifier="QVexAlbAcl"/>
      <point x="840.1009307605905" y="0.0" type="line" smooth="yes" identifier="ZgsCdxNJRW"/>
      <point x="1464.3710326943558" y="0.0" type="line" smooth="yes" identifier="kpn4Kw9J0C"/>
      <point x="1464.3710326943558" y="1600.0" type="line" smooth="yes" identifier="OBZ5Ayed7M"/>
      <point x="152.9076073070067" y="1600.0" type="line" smooth="yes" identifier="iDT0uyhKrn"/>
      <point x="94.08584961337714" y="1005.4392350308266" type="line" smooth="yes" identifier="dqVr87m3uJ"/>
    </contour>
    <contour>
      <point x="718.3519475431387" y="899.4396648901154" type="line" smooth="yes" identifier="IIRC9Wy7kQ"/>
      <point x="718.3519475431387" y="1004.4626307989671" type="line" smooth="yes" identifier="VufvPdJ075"/>
      <point x="745.5548671794919" y="1206.4701758815872" type="line" smooth="yes" identifier="FsYtJ2vFnp"/>
      <point x="840.1009307605905" y="1206.4701758815872" type="line" smooth="yes" identifier="tUsW8L7b0y"/>
      <point x="840.1009307605905" y="899.4396648901154" type="line" smooth="yes" identifier="eTe9B4y76W"/>
    </contour>
  </outline>
</glyph>
<glyph name="C" format="2">
  <advance width="1520.2192001811623"/>
  <unicode hex="0043"/>
  <outline>
    <contour>
      <point x="76.27855783711638" y="0.0" type="line" identifier="7lPhzTnk2Z"/>
      <point x="1446.1924426929431" y="0.0" type="line" identifier="qJVLZGnkwh"/>
      <point x="1446.1924426929431" y="430.83244706167636" type="line" identifier="nDnDHzAMXL"/>
      <point x="821.9252225198171" y="430.83244706167636" type="line" identifier="QX1V08aTu0"/>
      <point x="821.9252225198171" y="393.56385214042876" type="line" identifier="Y750RHTvDj"/>
      <point x="700.5446557668779" y="393.56385214042876" type="line" identifier="L2LsGnXiZ2"/>
      <point x="700.5480585690794" y="979.6356065775485" type="line" identifier="sUWsr03vF4"/>
      <point x="725.4260136011887" y="1206.4361478595713" type="line" identifier="dbOUe6OhxL"/>
      <point x="820.9297475653832" y="1206.4361478595713" type="line" identifier="5BjRbcud80"/>
      <point x="820.9263447631816" y="788.1519627735844" type="line" identifier="fNVDqwQo2o"/>
      <point x="1445.1924426929431" y="788.1519627735844" type="line" identifier="wLqQQx7QVN"/>
      <point x="1445.1924426929431" y="1600.0" type="line" identifier="9eJelv8BOw"/>
      <point x="130.02163324485647" y="1600.0" type="line" identifier="lfZev3ICaC"/>
      <point x="76.27855783711638" y="1016.9037055073092" type="line" identifier="V1EWIdPahq"/>
    </contour>
  </outline>
</glyph>
<glyph name="D" format="2">
  <advance width="753.4703352000649"/>
  <unicode hex="0044"/>
  <outline>
    <contour>
      <point x="48.2156120084048" y="0.0" type="line" identifier="gh4oopoKIn"/>
      <point x="706.2397081766451" y="0.0" type="line" identifier="wIy2omw5Da"/>
      <point x="706.2397081766451" y="1109.9181884587288" type="line" identifier="ydeACnPZN4"/>
      <point x="605.1774567360154" y="1600.0" type="line" identifier="IF8msvcgce"/>
      <point x="48.2156120084048" y="1600.0" type="line" identifier="hTYdJwlqIh"/>
    </contour>
    <contour>
      <point x="299.8008278548819" y="1329.8617716815916" type="line" identifier="YShvMHvurg"/>
      <point x="394.3360297234171" y="1329.8617716815916" type="line" identifier="DiLdvAK6bW"/>
      <point x="454.654492330168" y="1105.376313250187" type="line" identifier="5OFemp6E2Y"/>
      <point x="454.654492330168" y="270.13822831840855" type="line" identifier="4w8cXO1HlF"/>
      <point x="299.8008278548819" y="270.13822831840855" type="line" identifier="OGdfzPVlic"/>
    </contour>
  </outline>
</glyph>
<glyph name="E" format="2">
  <advance width="749.0954197440684"/>
  <unicode hex="0045"/>
  <outline>
    <contour>
      <point x="59.48821794767741" y="0.0" type="line" identifier="fZynkQ4XHB"/>
      <point x="668.490878265653" y="0.0" type="line" identifier="FAQNpgUPxV"/>
      <point x="668.490878265653" y="386.84704524344164" type="line" identifier="gHI0YjrPxR"/>
      <point x="455.3550577604632" y="386.84704524344164" type="line" identifier="gxCIuXb4el"/>
      <point x="455.3550577604632" y="258.76941806671533" type="line" identifier="5cgTYOhATF"/>
      <point x="311.20358196033874" y="258.76941806671533" type="line" identifier="bWs42DaCgU"/>
      <point x="311.20358196033874" y="666.0273877481085" type="line" identifier="VtD2aADJmn"/>
      <point x="654.578199821443" y="666.0273877481085" type="line" identifier="PpbsFdHAnS"/>
      <point x="654.578199821443" y="933.9726122518915" type="line" identifier="8WuC5p8Ax5"/>
      <point x="311.20358196033874" y="933.9726122518915" type="line" identifier="m39IWn9ntA"/>
      <point x="311.20358196033874" y="1347.5102309516724" type="line" identifier="gQ21I4SHQg"/>
      <point x="454.3550577604632" y="1347.5102309516724" type="line" identifier="eqNb2VTwYs"/>
      <point x="454.3550577604632" y="1217.409048688328" type="line" identifier="mLmcFoJA4m"/>
      <point x="667.490878265653" y="1217.409048688328" type="line" identifier="e79n7CoPy1"/>
      <point x="667.490878265653" y="1600.0" type="line" identifier="qYRmo14Il5"/>
      <point x="59.48821794767741" y="1600.0" type="line" identifier="HmJIcnLWfC"/>
    </contour>
  </outline>
</glyph>
<glyph name="F" format="2">
  <advance width="747.7964450937424"/>
  <unicode hex="0046"/>
  <outline>
    <contour>
      <point x="59.48821794767741" y="0.0" type="line" identifier="oAgH2tA6DJ"/>
      <point x="311.20358196033874" y="0.0" type="line" identifier="zCZyMcW5ho"/>
      <point x="311.20358196033874" y="515.0582203825446" type="line" identifier="yHYqkMd7LI"/>
      <point x="662.0174228282335" y="515.0582203825446" type="line" identifier="NmB7yyQuio"/>
      <point x="662.0174228282335" y="784.3958282606931" type="line" identifier="wQk2C8zPHh"/>
      <point x="311.20358196033874" y="784.3958282606931" type="line" identifier="4cFHKQfHDt"/>
      <point x="311.20358196033874" y="1329.844366889412" type="line" identifier="ZvzwyrcwpS"/>
      <point x="453.37007277547815" y="1329.844366889412" type="line" identifier="4E754ovOIe"/>
      <point x="453.37007277547815" y="1083.3907240573906" type="line" identifier="vZkeT9KrKR"/>
      <point x="700.6961826691556" y="1083.3907240573906" type="line" identifier="0tk7G4orz6"/>
      <point x="700.6961826691556" y="1600.0" type="line" identifier="NUrIjqOB7J"/>
      <point x="59.48821794767741" y="1600.0" type="line" identifier="TBAYuCfUFX"/>
    </contour>
  </outline>
</glyph>
<glyph name="H" format="2">
  <advance width="1569.8505181858534"/>
  <unicode hex="0048"/>
  <outline>
    <contour>
      <point x="99.78266755243732" y="0.0" type="line" identifier="uqAJBjDIOT"/>
      <point x="724.0487654821989" y="0.0" type="line" identifier="WUaPOcaxKT"/>
      <point x="724.0487654821989" y="603.3235607980353" type="line" identifier="QjywsYY2yB"/>
      <point x="845.7977486996506" y="603.3235607980353" type="line" identifier="7JgTtdb0jg"/>
      <point x="845.7977486996506" y="0.0" type="line" identifier="njzlIRBsoY"/>
      <point x="1469.7886925965004" y="0.0" type="line" identifier="oOtn61SmRY"/>
      <point x="1469.7886925965004" y="1600.0" type="line" identifier="8OglXgblhr"/>
      <point x="845.7977486996506" y="1600.0" type="line" identifier="db0bPhBdaU"/>
      <point x="845.7977486996506" y="996.6764392019647" type="line" identifier="MTAeavIVWY"/>
      <point x="724.0487654821989" y="996.6764392019647" type="line" identifier="lggLiivmLt"/>
      <point x="724.0487654821989" y="1600.0" type="line" identifier="UPaHY3UudR"/>
      <point x="99.78266755243732" y="1600.0" type="line" identifier="ZnCDQVdtyD"/>
    </contour>
  </outline>
</glyph>
<glyph name="I" format="2">
  <advance width="1176.5383972561149"/>
  <unicode hex="0049"/>
  <outline>
    <contour>
      <point x="92.58649841032222" y="0.0" type="line" identifier="u8XZE2STzL"/>
      <point x="1083.6727408088768" y="0.0" type="line" identifier="1Ty0JfMohF"/>
      <point x="1083.6727408088768" y="393.73399225050883" type="line" identifier="quzaPWszgr"/>
      <point x="900.6239693146599" y="393.73399225050883" type="line" identifier="1m237t4hyw"/>
      <point x="900.6239693146599" y="1206.266007749491" type="line" identifier="v7N4yg5XNk"/>
      <point x="1083.6727408088768" y="1206.266007749491" type="line" identifier="9RiQmr3G8U"/>
      <point x="1083.6727408088768" y="1600.0" type="line" identifier="jZjJqwR81q"/>
      <point x="92.58649841032222" y="1600.0" type="line" identifier="PL3Zqx19x8"/>
      <point x="92.58649841032222" y="1206.266007749491" type="line" identifier="O5ZoWKLuW7"/>
      <point x="275.63815166517867" y="1206.266007749491" type="line" identifier="zfocDyDTCM"/>
      <point x="275.63815166517867" y="393.73399225050883" type="line" identifier="S4rO5KuHiL"/>
      <point x="92.58649841032222" y="393.73399225050883" type="line" identifier="aCoxe3fSmw"/>
    </contour>
  </outline>
</glyph>
<glyph name="J" format="2">
  <advance width="1519.3448012577142"/>
  <unicode hex="004A"/>
  <outline>
    <contour>
      <point x="116.32100869638407" y="0.0" type="line" identifier="jiO9eX9U07"/>
      <point x="1437.4014575135695" y="0.0" type="line" identifier="wgpFs1yguc"/>
      <point x="1437.4014575135695" y="1600.0" type="line" identifier="d5Di3vNzni"/>
      <point x="71.82459737014291" y="1600.0" type="line" identifier="TbrXnCyMEi"/>
      <point x="71.82459737014291" y="1206.266007749491" type="line" identifier="AdYfGKx8QJ"/>
      <point x="813.131355579804" y="1206.266007749491" type="line" identifier="46RrD1WET2"/>
      <point x="813.131355579804" y="393.3937120303487" type="line" identifier="zFXsE8BUYG"/>
      <point x="721.088342596851" y="393.3937120303487" type="line" identifier="NQmE31PUns"/>
      <point x="692.2460708957205" y="737.2310628947267" type="line" identifier="qiXxY6YhCq"/>
      <point x="68.25572820067315" y="737.2310628947267" type="line" identifier="7exNZv1XSc"/>
    </contour>
  </outline>
</glyph>
<glyph name="L" format="2">
  <advance width="1531.5906246586926"/>
  <unicode hex="004C"/>
  <outline>
    <contour>
      <point x="99.7506355204053" y="0.0" type="line" identifier="XkJNfQlnnt"/>
      <point x="1454.8149480812142" y="0.0" type="line" identifier="82EXZEgt46"/>
      <point x="1454.8149480812142" y="655.5970324679034" type="line" identifier="VYRt9kHZtP"/>
      <point x="833.4709554399244" y="655.5970324679034" type="line" identifier="t7Q9RRLHt8"/>
      <point x="833.4777610443276" y="393.52982411841276" type="line" identifier="cqpSxwFiM3"/>
      <point x="724.0201362523684" y="393.52982411841276" type="line" identifier="MbxRZRd8vz"/>
      <point x="724.0201362523684" y="1600.0" type="line" identifier="lYiaKSKITt"/>
      <point x="99.7506355204053" y="1600.0" type="line" identifier="XFf4mMUzYo"/>
    </contour>
  </outline>
</glyph>
<glyph name="M" format="2">
  <advance width="2508.2543263984703"/>
  <unicode hex="004D"/>
  <outline>
    <contour>
      <point x="818.3383443503564" y="80.0" type="line" identifier="0Dn4Xpf57M"/>
      <point x="763.5191698204712" y="1205.993783573363" type="line"/>
      <point x="724.0567734902069" y="1205.993783573363" type="line"/>
      <point x="724.0567734902069" y="0.0" type="line"/>
      <point x="99.78955331708084" y="0.0" type="line"/>
      <point x="99.78955331708084" y="1600.0" type="line"/>
      <point x="1185.177414651889" y="1600.0" type="line"/>
      <point x="1240.2797512226941" y="440.1483345207069" type="line"/>
      <point x="1267.9745751757766" y="440.1483345207069" type="line" identifier="9aKZPM0HPh"/>
      <point x="1323.0769117465816" y="1600.0" type="line"/>
      <point x="2408.467654842029" y="1600.0" type="line"/>
      <point x="2408.467654842029" y="0.0" type="line"/>
      <point x="1784.1975529082636" y="0.0" type="line"/>
      <point x="1784.1975529082636" y="1205.993783573363" type="line"/>
      <point x="1744.7391605820035" y="1205.993783573363" type="line"/>
      <point x="1689.9159820481138" y="80.0" type="line" identifier="spdoeeCFft"/>
    </contour>
  </outline>
</glyph>
<glyph name="N" format="2">
  <advance width="2034.79287195103"/>
  <unicode hex="004E"/>
  <outline>
    <contour>
      <point x="98.67003940877814" y="0.0" type="line" identifier="CkwYPPvJLv"/>
      <point x="722.9361373385398" y="0.0" type="line" identifier="oHTJsN7drZ"/>
      <point x="722.9361373385398" y="1231.6594191789386" type="line" identifier="wfBbYd10Pm"/>
      <point x="755.9308637967297" y="1231.6594191789386" type="line" identifier="MEnBDHq6zU"/>
      <point x="874.5025245465686" y="0.0" type="line" identifier="3Nbopwznvn"/>
      <point x="1939.707022337653" y="0.0" type="line" identifier="uKfuudIUvA"/>
      <point x="1939.707022337653" y="1600.0" type="line" identifier="XRdLFXiM4t"/>
      <point x="1315.4409244078913" y="1600.0" type="line" identifier="MUSJPjCIXg"/>
      <point x="1315.4409244078913" y="368.34058082106134" type="line" identifier="VILP20cFmq"/>
      <point x="1284.593672751831" y="368.34058082106134" type="line" identifier="z5b04GDwRN"/>
      <point x="1165.1715609503399" y="1600.0" type="line" identifier="LL64NQ6WBE"/>
      <point x="98.67003940877814" y="1600.0" type="line" identifier="dzUaaP1sjt"/>
    </contour>
  </outline>
</glyph>
<glyph name="O" format="2">
  <advance width="1561.1737202668135"/>
  <unicode hex="004F"/>
  <outline>
    <contour>
      <point x="1467.0068567065564" y="465.06838670502333" type="line" identifier="ob8US3C311"/>
      <point x="1467.0068567065564" y="1600.006805604403" type="line" identifier="c9brEFyXXA"/>
      <point x="228.9574459344229" y="1600.0" type="line" identifier="a4Ql951bxG"/>
      <point x="94.17707196686175" y="1126.9418217015816" type="line" identifier="kbL68Qh2zr"/>
      <point x="94.17707196686175" y="0.0" type="line" identifier="U6WibAQAUl"/>
      <point x="1333.2230799367935" y="0.006805604403202001" type="line" identifier="dfgNHTgBfR"/>
    </contour>
    <contour>
      <point x="842.7373559745932" y="540.568677786896" type="line" identifier="SnrsQD5TLy"/>
      <point x="828.4474835195556" y="393.73399225050883" type="line" identifier="jjd5iRDXWT"/>
      <point x="718.4431698966233" y="393.73399225050883" type="line" identifier="YbQKHpAtYn"/>
      <point x="718.4431698966233" y="1054.4295186076968" type="line" identifier="vdfGLkskOQ"/>
      <point x="733.2712402091782" y="1206.2762161560959" type="line" identifier="qXlVxK5ShE"/>
      <point x="842.7373559745932" y="1206.2762161560959" type="line" identifier="g70r2r6DwY"/>
    </contour>
  </outline>
</glyph>
<glyph name="P" format="2">
  <advance width="756.6041446852258"/>
  <unicode hex="0050"/>
  <outline>
    <contour>
      <point x="59.48821794767741" y="0.0" type="line" identifier="EG08jqU5fb"/>
      <point x="311.20358196033874" y="0.0" type="line" identifier="osRzIFK2Cu"/>
      <point x="311.20358196033874" y="631.4950896842789" type="line" identifier="hIFVovVRwe"/>
      <point x="707.7892306721134" y="681.2140609077546" type="line" identifier="Tt6D8zYZmU"/>
      <point x="707.7892306721134" y="1600.0" type="line" identifier="6xW04auDFu"/>
      <point x="59.48821794767741" y="1600.0" type="line" identifier="eETO5GBD5v"/>
    </contour>
    <contour>
      <point x="311.20358196033874" y="866.3538042547051" type="line" identifier="PIBVN1PGv1"/>
      <point x="311.20358196033874" y="1329.8617716815916" type="line" identifier="IZIZQr2gYJ"/>
      <point x="456.18899981062145" y="1329.8617716815916" type="line" identifier="2c4LCF1E1R"/>
      <point x="456.18899981062145" y="903.5790745700655" type="line" identifier="1WCnzth1GX"/>
    </contour>
  </outline>
</glyph>
<glyph name="Q" format="2">
  <advance width="1561.1737202668135"/>
  <unicode hex="0051"/>
  <outline>
    <contour>
      <point x="1466.9966482999516" y="1600.006805604403" type="line" identifier="c9brEFyXXA"/>
      <point x="207.45230716201687" y="1600.006805604403" type="line" identifier="a4Ql951bxG"/>
      <point x="94.17707196686175" y="1057.6213360507654" type="line" identifier="kbL68Qh2zr"/>
      <point x="94.17707196686175" y="0.006805604403202001" type="line" identifier="U6WibAQAUl"/>
      <point x="1466.9966482999516" y="0.006805604403202001" type="line" identifier="dfgNHTgBfR"/>
    </contour>
    <contour>
      <point x="842.73055037019" y="393.536629722816" type="line" identifier="jjd5iRDXWT"/>
      <point x="718.4431698966233" y="393.536629722816" type="line" identifier="YbQKHpAtYn"/>
      <point x="718.4431698966233" y="1057.1064878692507" type="line" identifier="vdfGLkskOQ"/>
      <point x="736.3314816317819" y="1206.4769814859903" type="line" identifier="qXlVxK5ShE"/>
      <point x="842.73055037019" y="1206.4769814859903" type="line" identifier="g70r2r6DwY"/>
    </contour>
    <contour>
      <point x="565.0391352313274" y="-277.50889227565904" type="line"/>
      <point x="1004.7937056175294" y="-277.50889227565904" type="line"/>
      <point x="1004.7937056175294" y="0.5663240818395974" type="line"/>
      <point x="565.0391352313274" y="0.5663240818395974" type="line"/>
    </contour>
  </outline>
</glyph>
<glyph name="R" format="2">
  <advance width="1565.1537002467933"/>
  <unicode hex="0052"/>
  <outline>
    <contour>
      <point x="724.1467934400868" y="911.357979601223" type="line"/>
      <point x="724.1399878356835" y="1206.4701758815872" type="line"/>
      <point x="842.71053035017" y="1206.4701758815872" type="line"/>
      <point x="842.7139331523715" y="954.9636924211499" type="line"/>
      <point x="804.6338841343846" y="911.357979601223" type="line"/>
    </contour>
    <contour>
      <point x="1471.5410355300246" y="0.0" type="line"/>
      <point x="1471.5444383322263" y="532.6660454248041" type="line"/>
      <point x="1358.2195889583277" y="713.2650969287606" type="line"/>
      <point x="1358.2195889583277" y="715.2650969287606" type="line"/>
      <point x="1466.9811533254976" y="901.9518367216066" type="line"/>
      <point x="1466.977750523296" y="1600.0" type="line"/>
      <point x="99.87388990592193" y="1600.0" type="line"/>
      <point x="99.87388990592193" y="0.0" type="line"/>
      <point x="724.1433906378852" y="0.0" type="line"/>
      <point x="724.1433906378852" y="518.1820469117766" type="line"/>
      <point x="804.0677173670167" y="518.1820469117766" type="line"/>
      <point x="846.706526346166" y="479.3571980388797" type="line"/>
      <point x="846.706526346166" y="0.0" type="line"/>
    </contour>
  </outline>
</glyph>
<glyph name="S" format="2">
  <advance width="1535.768036304573"/>
  <unicode hex="0053"/>
  <outline>
    <contour>
      <point x="88.76629782936088" y="0.0" type="line" identifier="09VlJ0BjUX"/>
      <point x="1449.0006162318473" y="0.0" type="line" identifier="EagWihqFM8"/>
      <point x="1449.0006162318473" y="915.8405883360839" type="line" identifier="KfNuQA7eZe"/>
      <point x="711.1280830379931" y="919.4297630964298" type="line" identifier="At364YZFEy"/>
      <point x="711.1280830379931" y="1231.9996993990987" type="line" identifier="BcuLfvaQKC"/>
      <point x="825.3108704299896" y="1231.9996993990987" type="line" identifier="3ZUkG35meB"/>
      <point x="825.3108704299896" y="1080.784084384685" type="line" identifier="DTOJhFIl15"/>
      <point x="1448.9631533435336" y="1080.784084384685" type="line" identifier="9KDcrfQ5Ui"/>
      <point x="1448.9631533435336" y="1600.0" type="line" identifier="SaF9ojRFrW"/>
      <point x="86.85570054539022" y="1600.0" type="line" identifier="F4sQEYelA8"/>
      <point x="86.85570054539022" y="701.9775922068213" type="line" identifier="3sQ8t8BZ6b"/>
      <point x="824.7345183020859" y="698.3884174464754" type="line" identifier="yiV6OCBLHg"/>
      <point x="824.7345183020859" y="393.3937120303487" type="line" identifier="9kdl9SYsn8"/>
      <point x="712.1780078376676" y="393.3937120303487" type="line" identifier="yZDWuX8LLe"/>
      <point x="712.1780078376676" y="539.9792916039163" type="line" identifier="jYb9001DTm"/>
      <point x="88.76629782936088" y="539.9792916039163" type="line" identifier="ho4DrS0rdW"/>
    </contour>
  </outline>
</glyph>
<glyph name="U" format="2">
  <advance width="1564.1537002467933"/>
  <unicode hex="0055"/>
  <outline>
    <contour>
      <point x="841.0969267565864" y="1600.0" type="line" smooth="yes"/>
      <point x="841.0969267565864" y="393.52982411841276" type="line"/>
      <point x="738.4709093477862" y="393.52982411841276" type="line" smooth="yes"/>
      <point x="719.3479435391347" y="549.0894838782726" type="line" smooth="yes"/>
      <point x="719.3479435391347" y="1600.0" type="line"/>
      <point x="95.08184560937313" y="1600.0" type="line" smooth="yes"/>
      <point x="95.08184560937313" y="547.7419742064387" type="line" smooth="yes"/>
      <point x="220.50871692513334" y="0.0" type="line" smooth="yes"/>
      <point x="1465.9343177010842" y="0.0" type="line" smooth="yes"/>
      <point x="1465.9343177010842" y="1600.0" type="line" smooth="yes"/>
    </contour>
  </outline>
</glyph>
<glyph name="V" format="2">
  <advance width="1564.1537002467933"/>
  <unicode hex="0056"/>
  <outline>
    <contour>
      <point x="719.3479435391347" y="1600.0" type="line" smooth="yes"/>
      <point x="719.3479435391347" y="393.52982411841276" type="line"/>
      <point x="821.7624661698734" y="393.52982411841276" type="line" smooth="yes"/>
      <point x="841.0969267565864" y="549.3679926172418" type="line" smooth="yes"/>
      <point x="841.0969267565864" y="1600.0" type="line"/>
      <point x="1465.9343177010842" y="1600.0" type="line" smooth="yes"/>
      <point x="1465.9343177010842" y="547.7419742064387" type="line" smooth="yes"/>
      <point x="1346.8293789284778" y="0.0" type="line" smooth="yes"/>
      <point x="95.08184560937313" y="0.0" type="line" smooth="yes"/>
      <point x="95.08184560937313" y="1600.0" type="line" smooth="yes"/>
    </contour>
  </outline>
</glyph>
<glyph name="W" format="2">
  <advance width="1165.6919351784215"/>
  <unicode hex="0057"/>
  <outline>
    <contour>
      <point x="811.1893785677569" y="1600.0" type="line" smooth="yes" identifier="12Pyby1xY2"/>
      <point x="811.1893785677569" y="270.13822831840855" type="line" identifier="iqeTRv7HXg"/>
      <point x="709.7981495008522" y="270.13822831840855" type="line" identifier="GlWB6PG54Z"/>
      <point x="678.5905545184825" y="431.6376015655295" type="line"/>
      <point x="677.8895291688085" y="443.20349178006836" type="line"/>
      <point x="677.171099026955" y="1600.0" type="line"/>
      <point x="443.76601827052275" y="1594.2216089963838" type="line" smooth="yes"/>
      <point x="444.33689545401256" y="436.6082659235813" type="line"/>
      <point x="441.8143729314901" y="270.13822831840855" type="line" identifier="Ljn2lpvpG8"/>
      <point x="345.4356518680842" y="270.13822831840855" type="line" smooth="yes" identifier="oee4nqI8Wl"/>
      <point x="311.1604757911065" y="454.355274193112" type="line" smooth="yes" identifier="WWvGwSpq0g"/>
      <point x="311.1604757911065" y="1600.0" type="line" identifier="JfSFAkWGZC"/>
      <point x="59.150465781096415" y="1600.0" type="line" smooth="yes" identifier="RTOJW56qXy"/>
      <point x="59.150465781096415" y="451.4542831119407" type="line" smooth="yes" identifier="7g7f8Wu7K4"/>
      <point x="141.63695226758287" y="0.0" type="line" smooth="yes" identifier="R4lklfJsHA"/>
      <point x="560.3070367664961" y="0.0" type="line" smooth="yes" identifier="Pkl7cZ37MU"/>
      <point x="562.102345588832" y="327.42827512196885" type="line"/>
      <point x="568.0805129453778" y="327.42827512196885" type="line"/>
      <point x="609.7634391147905" y="0.0" type="line" smooth="yes" identifier="rCeQLyjlsN"/>
      <point x="1106.3655817980143" y="0.0" type="line" smooth="yes" identifier="ZqTZqAY3uY"/>
      <point x="1106.3655817980143" y="1600.0" type="line" smooth="yes" identifier="5LJg4ajoG6"/>
    </contour>
  </outline>
</glyph>
<glyph name="X" format="2">
  <advance width="1572.6114001889778"/>
  <unicode hex="0058"/>
  <outline>
    <contour>
      <point x="798.2978393809225" y="603.214671127584" type="line"/>
      <point x="854.2452402352302" y="556.4170446722999" type="line"/>
      <point x="854.2452402352302" y="0.0" type="line"/>
      <point x="1478.5124604083564" y="0.0" type="line"/>
      <point x="1478.5124604083564" y="609.8347817286756" type="line"/>
      <point x="1351.60438616795" y="799.0" type="line"/>
      <point x="1351.60438616795" y="801.0" type="line"/>
      <point x="1474.5164644123604" y="987.1171702232764" type="line"/>
      <point x="1474.5164644123604" y="1600.0" type="line"/>
      <point x="850.52840227615" y="1600.0" type="line"/>
      <point x="850.52840227615" y="1040.534907279652" type="line"/>
      <point x="798.2978393809225" y="996.785328872416" type="line"/>
      <point x="774.2971479988497" y="996.785328872416" type="line"/>
      <point x="722.0659839018197" y="1040.534907279652" type="line"/>
      <point x="722.0659839018197" y="1600.0" type="line"/>
      <point x="98.07564120677233" y="1600.0" type="line"/>
      <point x="98.07564120677233" y="987.1171702232764" type="line"/>
      <point x="220.99628457286116" y="801.0" type="line"/>
      <point x="220.99628457286116" y="799.0" type="line"/>
      <point x="94.07964521077633" y="609.8347817286756" type="line"/>
      <point x="94.07964521077633" y="0.0" type="line"/>
      <point x="718.3491459427395" y="0.0" type="line"/>
      <point x="718.3491459427395" y="556.4170446722999" type="line"/>
      <point x="774.2971479988497" y="603.214671127584" type="line"/>
    </contour>
  </outline>
</glyph>
<glyph name="Y" format="2">
  <advance width="726.7979330682033"/>
  <unicode hex="0059"/>
  <outline>
    <contour>
      <point x="238.5337770202635" y="-0.003967931895859825" type="line" identifier="XKjckKJ7m9"/>
      <point x="489.55880204528853" y="0.0" type="line" identifier="WihjL321cU"/>
      <point x="489.55880204528853" y="639.1071882693504" type="line" identifier="rvzWMWl6O1"/>
      <point x="689.6981576170766" y="731.2327011696382" type="line" identifier="YbKEFhFR3q"/>
      <point x="689.6981576170766" y="1600.063486910334" type="line" identifier="wnC8PudY2b"/>
      <point x="437.97409120832543" y="1600.063486910334" type="line" identifier="spI4xe8t4f"/>
      <point x="437.97409120832543" y="974.0996582167753" type="line" identifier="Jw55i2s2Mm"/>
      <point x="365.4164975786597" y="934.3552110669227" type="line" identifier="9ncbEH2hEb"/>
      <point x="362.6760814868923" y="934.3552110669227" type="line" identifier="u7HFbTQwMo"/>
      <point x="288.1228165102039" y="974.0996582167753" type="line" identifier="oy8ifCCtGL"/>
      <point x="288.1228165102039" y="1600.063486910334" type="line" identifier="ah5yat5gKV"/>
      <point x="37.0997754511268" y="1600.063486910334" type="line" identifier="fJXhpKV79E"/>
      <point x="37.0997754511268" y="731.2327011696382" type="line" identifier="k3vH9oxqcN"/>
      <point x="238.5337770202635" y="639.1071882693504" type="line" identifier="3Kveia3O9h"/>
    </contour>
  </outline>
</glyph>
<glyph name="Z" format="2">
  <advance width="732.3208072937801"/>
  <unicode hex="005A"/>
  <outline>
    <contour>
      <point x="39.35370505640777" y="0.0" type="line"/>
      <point x="693.5486657828999" y="0.0" type="line" identifier="pzdvPTirLJ"/>
      <point x="693.5486657828999" y="520.1457132808486" type="line" identifier="91SxUS0iwG"/>
      <point x="442.8184941698455" y="520.1457132808486" type="line"/>
      <point x="442.8184941698455" y="270.13822831840855" type="line"/>
      <point x="294.09912615318024" y="270.13822831840855" type="line"/>
      <point x="294.09912615318024" y="441.3515677840002" type="line"/>
      <point x="698.9439168898629" y="1320.3895968040113" type="line" identifier="yyb1NCCI5w"/>
      <point x="698.9439168898629" y="1600.0" type="line" identifier="5FogYRSgkk"/>
      <point x="42.63766469171875" y="1600.0" type="line" identifier="svlFvrau4c"/>
      <point x="42.63766469171875" y="1121.8940562183805" type="line" identifier="LQ9fBsTy9K"/>
      <point x="267.94594594594594" y="1121.8940562183805" type="line"/>
      <point x="267.94594594594594" y="1329.8617716815916" type="line"/>
      <point x="441.82234486739" y="1329.8617716815916" type="line"/>
      <point x="441.82234486739" y="1310.6049292535777" type="line"/>
      <point x="39.35370505640777" y="444.93616138661184" type="line" identifier="teVKnpBcVb"/>
    </contour>
  </outline>
</glyph>
<glyph name="S.alt" format="2">
  <advance width="153.03103103103103"/>
  <outline>
    <contour>
      <point x="19.87887887887888" y="0.0" type="line" identifier="09VlJ0BjUX"/>
      <point x="123.71271271271272" y="0.0" type="line" identifier="EagWihqFM8"/>
      <point x="123.71271271271272" y="970.96996996997" type="line" identifier="KfNuQA7eZe"/>
      <point x="19.87887887887888" y="970.96996996997" type="line" identifier="At364YZFEy"/>
      <point x="19.87887887887888" y="1125.03003003003" type="line"/>
      <point x="35.631631631631635" y="1207.069069069069" type="line"/>
      <point x="121.71271271271272" y="1207.069069069069" type="line" identifier="3ZUkG35meB"/>
      <point x="121.71271271271272" y="1105.045045045045" type="line" identifier="DTOJhFIl15"/>
      <point x="123.71271271271272" y="1105.045045045045" type="line" identifier="9KDcrfQ5Ui"/>
      <point x="123.71271271271272" y="1600.0" type="line" identifier="SaF9ojRFrW"/>
      <point x="65.07607607607608" y="1600.0" type="line"/>
      <point x="17.87887887887888" y="1125.03003003003" type="line"/>
      <point x="17.87887887887888" y="629.03003003003" type="line" identifier="3sQ8t8BZ6b"/>
      <point x="121.71271271271272" y="629.03003003003" type="line" identifier="yiV6OCBLHg"/>
      <point x="121.71271271271272" y="392.93093093093097" type="line" identifier="9kdl9SYsn8"/>
      <point x="21.5985985985986" y="392.93093093093097" type="line" identifier="yZDWuX8LLe"/>
      <point x="21.5985985985986" y="429.1171171171171" type="line" identifier="jYb9001DTm"/>
      <point x="19.87887887887888" y="429.1171171171171" type="line" identifier="ho4DrS0rdW"/>
    </contour>
  </outline>
</glyph>
